<svg xmlns="http://www.w3.org/2000/svg" width="24" height="24" viewBox="0 0 24 24" fill="none">
  <path d="M18.7353 15.7626L18.7353 15.7626L12.0331 9.0604L12 9.02726L11.9668 9.06039L5.26276 15.7626L5.2959 15.7957L5.26275 15.7626C5.0602 15.9651 4.78548 16.0789 4.49902 16.0789C4.21257 16.0789 3.93785 15.9651 3.73529 15.7626C3.53274 15.56 3.41895 15.2853 3.41895 14.9989C3.41895 14.7124 3.53274 14.4377 3.73529 14.2351L11.2353 6.73513L11.2353 6.73507C11.3355 6.63456 11.4545 6.55481 11.5856 6.50039C11.7166 6.44598 11.8571 6.41797 11.999 6.41797C12.1409 6.41797 12.2814 6.44598 12.4125 6.50039C12.5435 6.55481 12.6625 6.63456 12.7627 6.73507L12.7628 6.73513L20.2628 14.2351L20.2628 14.2352C20.3633 14.3353 20.4431 14.4544 20.4975 14.5854C20.5519 14.7165 20.5799 14.857 20.5799 14.9989C20.5799 15.1408 20.5519 15.2813 20.4975 15.4123C20.4431 15.5433 20.3633 15.6624 20.2628 15.7625L20.2627 15.7626C20.1625 15.8632 20.0435 15.9429 19.9125 15.9973C19.7814 16.0517 19.6409 16.0797 19.499 16.0797C19.3571 16.0797 19.2166 16.0517 19.0856 15.9973C18.9545 15.9429 18.8355 15.8632 18.7353 15.7626Z" fill="#475569" stroke="#475569" stroke-width="0.09375"/>
</svg>