<svg xmlns="http://www.w3.org/2000/svg" width="133" height="44" viewBox="0 0 133 44" fill="none">
  <rect x="1.25" y="0.5" width="131" height="43" rx="7.5" fill="black"/>
  <rect x="1.25" y="0.5" width="131" height="43" rx="7.5" stroke="#64748B"/>
  <path d="M90.4285 21.121V23.6411H88.8488V25.2938H90.4285V30.9093C90.4285 32.8268 91.2959 33.5938 93.4782 33.5938C93.8617 33.5938 94.2269 33.5481 94.5465 33.4933V31.8589C94.2726 31.8863 94.0991 31.9046 93.7978 31.9046C92.8208 31.9046 92.3916 31.448 92.3916 30.4071V25.2938H94.5465V23.6411H92.3916V21.121H90.4285Z" fill="white"/>
  <path d="M100.106 33.7307C103.009 33.7307 104.79 31.7859 104.79 28.5627C104.79 25.3577 103 23.4037 100.106 23.4037C97.2021 23.4037 95.4125 25.3577 95.4125 28.5627C95.4125 31.7859 97.193 33.7307 100.106 33.7307ZM100.106 31.9867C98.3983 31.9867 97.4395 30.7358 97.4395 28.5627C97.4395 26.4078 98.3983 25.1477 100.106 25.1477C101.804 25.1477 102.772 26.4078 102.772 28.5627C102.772 30.7267 101.804 31.9867 100.106 31.9867Z" fill="white"/>
  <path d="M106.313 33.539H108.276V27.6678C108.276 26.2708 109.326 25.3303 110.815 25.3303C111.162 25.3303 111.746 25.3943 111.91 25.449V23.5133C111.7 23.4585 111.326 23.4311 111.034 23.4311C109.737 23.4311 108.632 24.1433 108.349 25.1203H108.203V23.5955H106.313V33.539Z" fill="white"/>
  <path d="M116.785 25.0747C118.237 25.0747 119.186 26.0882 119.232 27.6496H114.21C114.32 26.0973 115.333 25.0747 116.785 25.0747ZM119.223 30.8545C118.858 31.6306 118.045 32.0598 116.858 32.0598C115.287 32.0598 114.274 30.955 114.21 29.211V29.1014H121.232V28.4166C121.232 25.2938 119.561 23.4037 116.794 23.4037C113.991 23.4037 112.21 25.4217 112.21 28.5992C112.21 31.7767 113.954 33.7307 116.803 33.7307C119.077 33.7307 120.665 32.635 121.113 30.8545H119.223Z" fill="white"/>
  <path d="M77.5545 29.867C77.706 32.3087 79.7407 33.8702 82.7691 33.8702C86.0058 33.8702 88.031 32.233 88.031 29.6209C88.031 27.5673 86.8764 26.4316 84.0751 25.7786L82.5704 25.4095C80.7912 24.9931 80.0719 24.4347 80.0719 23.46C80.0719 22.2297 81.1887 21.4252 82.8638 21.4252C84.4537 21.4252 85.5515 22.2107 85.7502 23.4694H87.8134C87.6903 21.1697 85.6651 19.5514 82.8922 19.5514C79.911 19.5514 77.9236 21.1697 77.9236 23.6019C77.9236 25.6083 79.0498 26.8007 81.5199 27.378L83.2802 27.8039C85.0878 28.2298 85.8827 28.8544 85.8827 29.8954C85.8827 31.1068 84.6335 31.9869 82.93 31.9869C81.1035 31.9869 79.8353 31.1636 79.6555 29.867H77.5545Z" fill="white"/>
  <path d="M57.2185 23.4311C55.8671 23.4311 54.6983 24.1068 54.0957 25.239H53.9496V23.5955H52.0595V36.8444H54.0227V32.0324H54.1779C54.6983 33.0824 55.8214 33.7033 57.2367 33.7033C59.7477 33.7033 61.3456 31.7219 61.3456 28.5627C61.3456 25.4034 59.7477 23.4311 57.2185 23.4311ZM56.6615 31.9411C55.0179 31.9411 53.9861 30.6445 53.9861 28.5718C53.9861 26.49 55.0179 25.1934 56.6706 25.1934C58.3324 25.1934 59.3277 26.4626 59.3277 28.5627C59.3277 30.6719 58.3324 31.9411 56.6615 31.9411Z" fill="white"/>
  <path d="M68.2149 23.4311C66.8636 23.4311 65.6948 24.1068 65.0922 25.239H64.9461V23.5955H63.056V36.8444H65.0191V32.0324H65.1744C65.6948 33.0824 66.8179 33.7033 68.2332 33.7033C70.7442 33.7033 72.3421 31.7219 72.3421 28.5627C72.3421 25.4034 70.7442 23.4311 68.2149 23.4311ZM67.658 31.9411C66.0144 31.9411 64.9826 30.6445 64.9826 28.5718C64.9826 26.49 66.0144 25.1934 67.6671 25.1934C69.3289 25.1934 70.3242 26.4626 70.3242 28.5627C70.3242 30.6719 69.3289 31.9411 67.658 31.9411Z" fill="white"/>
  <path d="M48.5373 33.539H50.7897L45.8591 19.8826H43.5783L38.6476 33.539H40.8243L42.083 29.9143H47.2881L48.5373 33.539ZM44.6098 22.3622H44.7707L46.7487 28.1351H42.6224L44.6098 22.3622Z" fill="white"/>
  <path d="M39.9658 9.58202V16.1699H42.3444C44.3075 16.1699 45.4443 14.9601 45.4443 12.8554C45.4443 10.7827 44.2984 9.58202 42.3444 9.58202H39.9658ZM40.9885 10.5134H42.2303C43.5953 10.5134 44.4034 11.3808 44.4034 12.8691C44.4034 14.3803 43.609 15.2386 42.2303 15.2386H40.9885V10.5134Z" fill="white"/>
  <path d="M48.9259 16.2658C50.3777 16.2658 51.268 15.2934 51.268 13.6818C51.268 12.0793 50.3732 11.1023 48.9259 11.1023C47.4741 11.1023 46.5793 12.0793 46.5793 13.6818C46.5793 15.2934 47.4696 16.2658 48.9259 16.2658ZM48.9259 15.3938C48.0722 15.3938 47.5928 14.7683 47.5928 13.6818C47.5928 12.6043 48.0722 11.9743 48.9259 11.9743C49.7751 11.9743 50.259 12.6043 50.259 13.6818C50.259 14.7638 49.7751 15.3938 48.9259 15.3938Z" fill="white"/>
  <path d="M58.8494 11.1982H57.8678L56.9821 14.9921H56.9045L55.8818 11.1982H54.9413L53.9187 14.9921H53.8456L52.9554 11.1982H51.9601L53.3297 16.1699H54.3387L55.3614 12.5085H55.439L56.4662 16.1699H57.4843L58.8494 11.1982Z" fill="white"/>
  <path d="M59.9798 16.1699H60.9613V13.2618C60.9613 12.4856 61.4224 12.0017 62.1483 12.0017C62.8742 12.0017 63.2212 12.3989 63.2212 13.1978V16.1699H64.2028V12.9513C64.2028 11.7689 63.591 11.1023 62.4816 11.1023C61.7329 11.1023 61.2398 11.4356 60.9978 11.988H60.9248V11.1982H59.9798V16.1699Z" fill="white"/>
  <path d="M65.7486 16.1699H66.7302V9.25787H65.7486V16.1699Z" fill="white"/>
  <path d="M70.4218 16.2658C71.8736 16.2658 72.7639 15.2934 72.7639 13.6818C72.7639 12.0793 71.869 11.1023 70.4218 11.1023C68.97 11.1023 68.0752 12.0793 68.0752 13.6818C68.0752 15.2934 68.9654 16.2658 70.4218 16.2658ZM70.4218 15.3938C69.5681 15.3938 69.0887 14.7683 69.0887 13.6818C69.0887 12.6043 69.5681 11.9743 70.4218 11.9743C71.271 11.9743 71.7549 12.6043 71.7549 13.6818C71.7549 14.7638 71.271 15.3938 70.4218 15.3938Z" fill="white"/>
  <path d="M75.6885 15.4258C75.1543 15.4258 74.7663 15.1655 74.7663 14.7181C74.7663 14.2798 75.0767 14.047 75.7615 14.0014L76.9759 13.9237V14.3392C76.9759 14.9555 76.4281 15.4258 75.6885 15.4258ZM75.4374 16.2521C76.0902 16.2521 76.6335 15.9691 76.9303 15.4714H77.0079V16.1699H77.9529V12.7733C77.9529 11.7232 77.2499 11.1023 76.0035 11.1023C74.8758 11.1023 74.0723 11.6502 73.9719 12.5039H74.9215C75.0311 12.1524 75.41 11.9515 75.9578 11.9515C76.629 11.9515 76.9759 12.2482 76.9759 12.7733V13.2024L75.6291 13.28C74.4467 13.3531 73.7801 13.869 73.7801 14.7638C73.7801 15.6723 74.4786 16.2521 75.4374 16.2521Z" fill="white"/>
  <path d="M81.2839 16.2521C81.9687 16.2521 82.5485 15.928 82.8453 15.3847H82.9229V16.1699H83.8633V9.25787H82.8818V11.988H82.8087C82.5394 11.4401 81.9641 11.116 81.2839 11.116C80.0284 11.116 79.2203 12.1113 79.2203 13.6818C79.2203 15.2568 80.0192 16.2521 81.2839 16.2521ZM81.5624 11.9971C82.3841 11.9971 82.9 12.65 82.9 13.6863C82.9 14.7273 82.3887 15.371 81.5624 15.371C80.7315 15.371 80.2338 14.7364 80.2338 13.6818C80.2338 12.6363 80.736 11.9971 81.5624 11.9971Z" fill="white"/>
  <path d="M90.2285 16.2658C91.6803 16.2658 92.5705 15.2934 92.5705 13.6818C92.5705 12.0793 91.6757 11.1023 90.2285 11.1023C88.7767 11.1023 87.8818 12.0793 87.8818 13.6818C87.8818 15.2934 88.7721 16.2658 90.2285 16.2658ZM90.2285 15.3938C89.3747 15.3938 88.8954 14.7683 88.8954 13.6818C88.8954 12.6043 89.3747 11.9743 90.2285 11.9743C91.0776 11.9743 91.5616 12.6043 91.5616 13.6818C91.5616 14.7638 91.0776 15.3938 90.2285 15.3938Z" fill="white"/>
  <path d="M93.8699 16.1699H94.8514V13.2618C94.8514 12.4856 95.3125 12.0017 96.0384 12.0017C96.7643 12.0017 97.1113 12.3989 97.1113 13.1978V16.1699H98.0929V12.9513C98.0929 11.7689 97.4811 11.1023 96.3717 11.1023C95.623 11.1023 95.1299 11.4356 94.8879 11.988H94.8149V11.1982H93.8699V16.1699Z" fill="white"/>
  <path d="M102.614 9.96095V11.221H101.824V12.0474H102.614V14.8551C102.614 15.8138 103.047 16.1973 104.138 16.1973C104.33 16.1973 104.513 16.1745 104.673 16.1471V15.3299C104.536 15.3436 104.449 15.3527 104.298 15.3527C103.81 15.3527 103.595 15.1245 103.595 14.604V12.0474H104.673V11.221H103.595V9.96095H102.614Z" fill="white"/>
  <path d="M105.99 16.1699H106.972V13.2663C106.972 12.513 107.419 12.0063 108.223 12.0063C108.917 12.0063 109.286 12.408 109.286 13.2024V16.1699H110.268V12.9604C110.268 11.778 109.615 11.1069 108.556 11.1069C107.807 11.1069 107.282 11.4401 107.04 11.9971H106.963V9.25787H105.99V16.1699Z" fill="white"/>
  <path d="M113.809 11.9378C114.535 11.9378 115.01 12.4445 115.032 13.2252H112.521C112.576 12.4491 113.083 11.9378 113.809 11.9378ZM115.028 14.8277C114.845 15.2158 114.439 15.4303 113.845 15.4303C113.06 15.4303 112.553 14.8779 112.521 14.0059V13.9511H116.032V13.6087C116.032 12.0474 115.197 11.1023 113.813 11.1023C112.412 11.1023 111.522 12.1113 111.522 13.7C111.522 15.2888 112.394 16.2658 113.818 16.2658C114.955 16.2658 115.749 15.718 115.973 14.8277H115.028Z" fill="white"/>
  <path d="M27.9959 22.3309C28.0197 20.4818 29.0128 18.7321 30.5881 17.7636C29.5943 16.3443 27.9297 15.4444 26.1979 15.3902C24.3507 15.1963 22.5599 16.4955 21.6187 16.4955C20.6592 16.4955 19.2099 15.4094 17.6493 15.4415C15.6151 15.5073 13.7188 16.6638 12.7291 18.4422C10.6017 22.1255 12.1886 27.5386 14.2264 30.5159C15.246 31.9738 16.4376 33.6023 17.9968 33.5445C19.5226 33.4812 20.0924 32.5716 21.9342 32.5716C23.7588 32.5716 24.2934 33.5445 25.8843 33.5078C27.5215 33.4812 28.553 32.0434 29.5368 30.5717C30.2694 29.5329 30.8331 28.3848 31.2071 27.17C29.283 26.3562 27.9982 24.4199 27.9959 22.3309Z" fill="white"/>
  <path d="M24.9911 13.4322C25.8838 12.3606 26.3236 10.9832 26.2171 9.5925C24.8532 9.73574 23.5935 10.3876 22.6887 11.4181C21.804 12.4249 21.3436 13.7781 21.4306 15.1156C22.7949 15.1296 24.1362 14.4955 24.9911 13.4322Z" fill="white"/>
</svg>