<svg xmlns="http://www.w3.org/2000/svg" width="24" height="24" viewBox="0 0 24 24" fill="none">
  <path d="M5.15099 4.07757C5.7908 3.65006 6.54301 3.42188 7.3125 3.42188C8.34436 3.42188 9.33396 3.83178 10.0636 4.56141C10.7932 5.29105 11.2031 6.28064 11.2031 7.3125C11.2031 8.082 10.9749 8.83421 10.5474 9.47402C10.1199 10.1138 9.5123 10.6125 8.80138 10.907C8.09046 11.2014 7.30819 11.2785 6.55348 11.1284C5.79877 10.9782 5.10553 10.6077 4.56141 10.0636C4.0173 9.51948 3.64675 8.82623 3.49663 8.07153C3.34651 7.31682 3.42356 6.53454 3.71803 5.82362C4.01251 5.11271 4.51118 4.50507 5.15099 4.07757ZM6.34893 8.75458C6.63415 8.94516 6.96948 9.04688 7.3125 9.04688C7.77249 9.04688 8.21363 8.86415 8.53889 8.53889C8.86415 8.21363 9.04688 7.77249 9.04688 7.3125C9.04688 6.96948 8.94516 6.63415 8.75458 6.34893C8.56401 6.06372 8.29313 5.84142 7.97622 5.71015C7.6593 5.57888 7.31058 5.54453 6.97414 5.61145C6.63771 5.67837 6.32867 5.84356 6.08611 6.08611C5.84356 6.32867 5.67837 6.63771 5.61145 6.97414C5.54453 7.31058 5.57888 7.6593 5.71015 7.97622C5.84142 8.29313 6.06372 8.56401 6.34893 8.75458ZM18.849 10.5474C18.2092 10.9749 17.457 11.2031 16.6875 11.2031C15.6556 11.2031 14.666 10.7932 13.9364 10.0636C13.2068 9.33396 12.7969 8.34436 12.7969 7.3125C12.7969 6.54301 13.0251 5.7908 13.4526 5.15099C13.8801 4.51118 14.4877 4.01251 15.1986 3.71803C15.9095 3.42356 16.6918 3.34651 17.4465 3.49663C18.2012 3.64675 18.8945 4.0173 19.4386 4.56141C19.9827 5.10553 20.3532 5.79877 20.5034 6.55348C20.6535 7.30819 20.5764 8.09046 20.282 8.80138C19.9875 9.5123 19.4888 10.1199 18.849 10.5474ZM17.6511 5.87042C17.3659 5.67985 17.0305 5.57813 16.6875 5.57813C16.2275 5.57813 15.7864 5.76086 15.4611 6.08611C15.1359 6.41137 14.9531 6.85252 14.9531 7.3125C14.9531 7.65553 15.0548 7.99085 15.2454 8.27607C15.436 8.56129 15.7069 8.78359 16.0238 8.91486C16.3407 9.04613 16.6894 9.08047 17.0259 9.01355C17.3623 8.94663 17.6713 8.78145 17.9139 8.53889C18.1564 8.29633 18.3216 7.9873 18.3886 7.65086C18.4555 7.31443 18.4211 6.9657 18.2899 6.64879C18.1586 6.33187 17.9363 6.061 17.6511 5.87042ZM5.15099 13.4526C5.7908 13.0251 6.54301 12.7969 7.3125 12.7969C8.34436 12.7969 9.33396 13.2068 10.0636 13.9364C10.7932 14.666 11.2031 15.6556 11.2031 16.6875C11.2031 17.457 10.9749 18.2092 10.5474 18.849C10.1199 19.4888 9.5123 19.9875 8.80138 20.282C8.09046 20.5764 7.30819 20.6535 6.55348 20.5034C5.79877 20.3532 5.10553 19.9827 4.56141 19.4386C4.0173 18.8945 3.64675 18.2012 3.49663 17.4465C3.34651 16.6918 3.42356 15.9095 3.71803 15.1986C4.01251 14.4877 4.51118 13.8801 5.15099 13.4526ZM6.34893 18.1296C6.63415 18.3202 6.96948 18.4219 7.3125 18.4219C7.77249 18.4219 8.21363 18.2391 8.53889 17.9139C8.86415 17.5886 9.04688 17.1475 9.04688 16.6875C9.04688 16.3445 8.94516 16.0092 8.75458 15.7239C8.56401 15.4387 8.29313 15.2164 7.97622 15.0851C7.6593 14.9539 7.31058 14.9195 6.97414 14.9865C6.63771 15.0534 6.32867 15.2186 6.08611 15.4611C5.84356 15.7037 5.67837 16.0127 5.61145 16.3491C5.54453 16.6856 5.57888 17.0343 5.71015 17.3512C5.84142 17.6681 6.06372 17.939 6.34893 18.1296ZM14.526 13.4526C15.1658 13.0251 15.918 12.7969 16.6875 12.7969C17.7194 12.7969 18.709 13.2068 19.4386 13.9364C20.1682 14.666 20.5781 15.6556 20.5781 16.6875C20.5781 17.457 20.3499 18.2092 19.9224 18.849C19.4949 19.4888 18.8873 19.9875 18.1764 20.282C17.4655 20.5764 16.6832 20.6535 15.9285 20.5034C15.1738 20.3532 14.4805 19.9827 13.9364 19.4386C13.3923 18.8945 13.0218 18.2012 12.8716 17.4465C12.7215 16.6918 12.7986 15.9095 13.093 15.1986C13.3875 14.4877 13.8862 13.8801 14.526 13.4526ZM15.7239 18.1296C16.0092 18.3202 16.3445 18.4219 16.6875 18.4219C17.1475 18.4219 17.5886 18.2391 17.9139 17.9139C18.2391 17.5886 18.4219 17.1475 18.4219 16.6875C18.4219 16.3445 18.3202 16.0092 18.1296 15.7239C17.939 15.4387 17.6681 15.2164 17.3512 15.0851C17.0343 14.9539 16.6856 14.9195 16.3491 14.9865C16.0127 15.0534 15.7037 15.2186 15.4611 15.4611C15.2186 15.7037 15.0534 16.0127 14.9865 16.3491C14.9195 16.6856 14.9539 17.0343 15.0851 17.3512C15.2164 17.6681 15.4387 17.939 15.7239 18.1296Z" fill="#475569" stroke="#475569" stroke-width="0.09375"/>
</svg>