<svg xmlns="http://www.w3.org/2000/svg" width="150" height="44" viewBox="0 0 150 44" fill="none">
  <rect x="1.25" y="0.5" width="147.5" height="43" rx="7.5" fill="black"/>
  <rect x="1.25" y="0.5" width="147.5" height="43" rx="7.5" stroke="#64748B"/>
  <path d="M75.6999 23.9262C73.1127 23.9262 71.004 25.8941 71.004 28.6045C71.004 31.2984 73.1127 33.2828 75.6999 33.2828C78.2882 33.2828 80.3969 31.2984 80.3969 28.6045C80.3958 25.8941 78.2871 23.9262 75.6999 23.9262ZM75.6999 31.4414C74.282 31.4414 73.0599 30.2721 73.0599 28.6056C73.0599 26.9215 74.2831 25.7698 75.6999 25.7698C77.1178 25.7698 78.3399 26.9215 78.3399 28.6056C78.3399 30.271 77.1178 31.4414 75.6999 31.4414ZM65.4545 23.9262C62.8673 23.9262 60.7586 25.8941 60.7586 28.6045C60.7586 31.2984 62.8673 33.2828 65.4545 33.2828C68.0428 33.2828 70.1515 31.2984 70.1515 28.6045C70.1515 25.8941 68.0428 23.9262 65.4545 23.9262ZM65.4545 31.4414C64.0366 31.4414 62.8145 30.2721 62.8145 28.6056C62.8145 26.9215 64.0377 25.7698 65.4545 25.7698C66.8724 25.7698 68.0945 26.9215 68.0945 28.6056C68.0956 30.271 66.8724 31.4414 65.4545 31.4414ZM53.2687 25.3628V27.3472H58.0185C57.8766 28.4637 57.5048 29.2788 56.9372 29.8453C56.2464 30.5361 55.1651 31.2984 53.2687 31.2984C50.3449 31.2984 48.0591 28.9411 48.0591 26.0173C48.0591 23.0935 50.3449 20.7362 53.2687 20.7362C54.8461 20.7362 55.9978 21.3566 56.8481 22.1541L58.2484 20.7538C57.0604 19.6197 55.4841 18.7518 53.2687 18.7518C49.2636 18.7518 45.8965 22.0122 45.8965 26.0173C45.8965 30.0224 49.2636 33.2828 53.2687 33.2828C55.4302 33.2828 57.0615 32.5733 58.3364 31.2445C59.6476 29.9333 60.0557 28.0897 60.0557 26.6014C60.0557 26.1416 60.0205 25.7159 59.949 25.3617H53.2687V25.3628ZM103.107 26.9039C102.718 25.8589 101.53 23.9262 99.1024 23.9262C96.6923 23.9262 94.6892 25.8226 94.6892 28.6045C94.6892 31.2269 96.6747 33.2828 99.3323 33.2828C101.476 33.2828 102.717 31.9716 103.232 31.2093L101.637 30.1456C101.105 30.9255 100.378 31.4392 99.3323 31.4392C98.2873 31.4392 97.5426 30.9607 97.0641 30.0213L103.32 27.4341L103.107 26.9039ZM96.7275 28.4637C96.6747 26.6553 98.1278 25.7346 99.1739 25.7346C99.989 25.7346 100.68 26.1427 100.911 26.7268L96.7275 28.4637ZM91.6422 33.0001H93.697V19.249H91.6422V33.0001ZM88.274 24.9723H88.2036C87.7427 24.4223 86.8561 23.9262 85.7407 23.9262C83.401 23.9262 81.2571 25.9821 81.2571 28.6232C81.2571 31.2456 83.401 33.2839 85.7407 33.2839C86.8572 33.2839 87.7427 32.7878 88.2036 32.2213H88.274V32.8945C88.274 34.6842 87.317 35.6412 85.7759 35.6412C84.5175 35.6412 83.7376 34.7381 83.4186 33.9758L81.6289 34.7205C82.1426 35.9602 83.5066 37.4848 85.7759 37.4848C88.186 37.4848 90.2243 36.0669 90.2243 32.6107V24.2111H88.2751V24.9723H88.274ZM85.9178 31.4414C84.4999 31.4414 83.313 30.2534 83.313 28.6232C83.313 26.9743 84.4999 25.7698 85.9178 25.7698C87.317 25.7698 88.4159 26.9743 88.4159 28.6232C88.4159 30.2534 87.317 31.4414 85.9178 31.4414ZM112.737 19.249H107.819V33.0001H109.87V27.7905H112.736C115.011 27.7905 117.248 26.1438 117.248 23.5203C117.248 20.8968 115.012 19.249 112.737 19.249ZM112.79 25.8765H109.87V21.163H112.79C114.324 21.163 115.195 22.4335 115.195 23.5203C115.195 24.5851 114.324 25.8765 112.79 25.8765ZM125.475 23.902C123.989 23.902 122.45 24.5565 121.813 26.0074L123.635 26.7675C124.024 26.0074 124.75 25.7588 125.51 25.7588C126.572 25.7588 127.651 26.3957 127.668 27.5276V27.6695C127.296 27.4572 126.5 27.1393 125.528 27.1393C123.564 27.1393 121.564 28.2184 121.564 30.2347C121.564 32.075 123.175 33.2597 124.979 33.2597C126.358 33.2597 127.119 32.6404 127.597 31.9144H127.667V32.9759H129.649V27.7036C129.65 25.2638 127.827 23.902 125.475 23.902ZM125.226 31.4381C124.555 31.4381 123.617 31.1015 123.617 30.2699C123.617 29.2084 124.785 28.8014 125.794 28.8014C126.695 28.8014 127.12 28.9961 127.668 29.2612C127.509 30.5361 126.412 31.4381 125.226 31.4381ZM136.868 24.2023L134.515 30.1643H134.444L132.002 24.2023H129.791L133.453 32.5348L131.365 37.1702H133.506L139.15 24.2023H136.868ZM118.381 33.0001H120.432V19.249H118.381V33.0001Z" fill="white"/>
  <path d="M52.9098 11.2672C52.9098 12.189 52.637 12.9227 52.0903 13.4705C51.4699 14.1217 50.6603 14.4473 49.6659 14.4473C48.7133 14.4473 47.9026 14.1173 47.2371 13.4573C46.5705 12.7962 46.2372 11.9778 46.2372 11.001C46.2372 10.0231 46.5705 9.20473 47.2371 8.54473C47.9026 7.88363 48.7133 7.55363 49.6659 7.55363C50.1389 7.55363 50.591 7.64603 51.02 7.82973C51.4501 8.01453 51.7944 8.25983 52.0518 8.56673L51.4721 9.14753C51.0354 8.62503 50.4337 8.36433 49.6648 8.36433C48.9696 8.36433 48.369 8.60853 47.8619 9.09693C47.3548 9.58533 47.1018 10.22 47.1018 10.9999C47.1018 11.7798 47.3548 12.4145 47.8619 12.9029C48.369 13.3913 48.9696 13.6355 49.6648 13.6355C50.4018 13.6355 51.0167 13.3902 51.5084 12.8985C51.8274 12.5784 52.0122 12.1329 52.0617 11.562H49.6648V10.7689H52.8625C52.8955 10.9416 52.9098 11.1077 52.9098 11.2672Z" fill="white"/>
  <path d="M57.9809 8.51069H54.9757V10.6029H57.6861V11.396H54.9757V13.4882H57.9809V14.3H54.1276V7.69999H57.9809V8.51069Z" fill="white"/>
  <path d="M61.5569 14.3H60.7088V8.51069H58.8652V7.69999H63.4005V8.51069H61.5569V14.3Z" fill="white"/>
  <path d="M66.6818 14.3V7.69999H67.5299V14.3H66.6818Z" fill="white"/>
  <path d="M71.291 14.3H70.4429V8.51069H68.5993V7.69999H73.1346V8.51069H71.291V14.3Z" fill="white"/>
  <path d="M81.7198 13.4475C81.0708 14.1141 80.2645 14.4474 79.2998 14.4474C78.3351 14.4474 77.5288 14.1141 76.8809 13.4475C76.2319 12.7809 75.9085 11.9647 75.9085 11C75.9085 10.0353 76.2319 9.21908 76.8809 8.55248C77.5288 7.88588 78.3351 7.55148 79.2998 7.55148C80.259 7.55148 81.0642 7.88698 81.7154 8.55688C82.3666 9.22678 82.6922 10.0408 82.6922 11C82.6922 11.9647 82.3677 12.7809 81.7198 13.4475ZM77.5068 12.8942C77.9952 13.3892 78.5925 13.6356 79.2998 13.6356C80.0071 13.6356 80.6055 13.3881 81.0928 12.8942C81.5812 12.3992 81.8265 11.7678 81.8265 11C81.8265 10.2322 81.5812 9.60078 81.0928 9.10578C80.6055 8.61078 80.0071 8.36438 79.2998 8.36438C78.5925 8.36438 77.9952 8.61188 77.5068 9.10578C77.0195 9.60078 76.7742 10.2322 76.7742 11C76.7742 11.7678 77.0195 12.3992 77.5068 12.8942Z" fill="white"/>
  <path d="M83.8824 14.3V7.69999H84.9142L88.1218 12.8337H88.1581L88.1218 11.5621V7.69999H88.9699V14.3H88.0844L84.7283 8.91659H84.692L84.7283 10.1882V14.3H83.8824Z" fill="white"/>
  <path d="M52.9098 11.2672C52.9098 12.189 52.637 12.9227 52.0903 13.4705C51.4699 14.1217 50.6603 14.4473 49.6659 14.4473C48.7133 14.4473 47.9026 14.1173 47.2371 13.4573C46.5705 12.7962 46.2372 11.9778 46.2372 11.001C46.2372 10.0231 46.5705 9.20473 47.2371 8.54473C47.9026 7.88363 48.7133 7.55363 49.6659 7.55363C50.1389 7.55363 50.591 7.64603 51.02 7.82973C51.4501 8.01453 51.7944 8.25983 52.0518 8.56673L51.4721 9.14753C51.0354 8.62503 50.4337 8.36433 49.6648 8.36433C48.9696 8.36433 48.369 8.60853 47.8619 9.09693C47.3548 9.58533 47.1018 10.22 47.1018 10.9999C47.1018 11.7798 47.3548 12.4145 47.8619 12.9029C48.369 13.3913 48.9696 13.6355 49.6648 13.6355C50.4018 13.6355 51.0167 13.3902 51.5084 12.8985C51.8274 12.5784 52.0122 12.1329 52.0617 11.562H49.6648V10.7689H52.8625C52.8955 10.9416 52.9098 11.1077 52.9098 11.2672Z" stroke="white" stroke-width="0.2" stroke-miterlimit="10"/>
  <path d="M57.9809 8.51069H54.9757V10.6029H57.6861V11.396H54.9757V13.4882H57.9809V14.3H54.1276V7.69999H57.9809V8.51069Z" stroke="white" stroke-width="0.2" stroke-miterlimit="10"/>
  <path d="M61.5569 14.3H60.7088V8.51069H58.8652V7.69999H63.4005V8.51069H61.5569V14.3Z" stroke="white" stroke-width="0.2" stroke-miterlimit="10"/>
  <path d="M66.6818 14.3V7.69999H67.5299V14.3H66.6818Z" stroke="white" stroke-width="0.2" stroke-miterlimit="10"/>
  <path d="M71.291 14.3H70.4429V8.51069H68.5993V7.69999H73.1346V8.51069H71.291V14.3Z" stroke="white" stroke-width="0.2" stroke-miterlimit="10"/>
  <path d="M81.7198 13.4475C81.0708 14.1141 80.2645 14.4474 79.2998 14.4474C78.3351 14.4474 77.5288 14.1141 76.8809 13.4475C76.2319 12.7809 75.9085 11.9647 75.9085 11C75.9085 10.0353 76.2319 9.21908 76.8809 8.55248C77.5288 7.88588 78.3351 7.55148 79.2998 7.55148C80.259 7.55148 81.0642 7.88698 81.7154 8.55688C82.3666 9.22678 82.6922 10.0408 82.6922 11C82.6922 11.9647 82.3677 12.7809 81.7198 13.4475ZM77.5068 12.8942C77.9952 13.3892 78.5925 13.6356 79.2998 13.6356C80.0071 13.6356 80.6055 13.3881 81.0928 12.8942C81.5812 12.3992 81.8265 11.7678 81.8265 11C81.8265 10.2322 81.5812 9.60078 81.0928 9.10578C80.6055 8.61078 80.0071 8.36438 79.2998 8.36438C78.5925 8.36438 77.9952 8.61188 77.5068 9.10578C77.0195 9.60078 76.7742 10.2322 76.7742 11C76.7742 11.7678 77.0195 12.3992 77.5068 12.8942Z" stroke="white" stroke-width="0.2" stroke-miterlimit="10"/>
  <path d="M83.8824 14.3V7.69999H84.9142L88.1218 12.8337H88.1581L88.1218 11.5621V7.69999H88.9699V14.3H88.0844L84.7283 8.91659H84.692L84.7283 10.1882V14.3H83.8824Z" stroke="white" stroke-width="0.2" stroke-miterlimit="10"/>
  <g filter="url(#filter0_ii_7_11983)">
    <path d="M12.23 8.29182C11.9099 8.63062 11.7207 9.15642 11.7207 9.83732V34.1649C11.7207 34.8469 11.9099 35.3716 12.23 35.7104L12.3114 35.7896L25.9393 22.1617V22.0011V21.8405L12.3114 8.21152L12.23 8.29182Z" fill="url(#paint0_linear_7_11983)"/>
    <path d="M30.4812 26.7058L25.9393 22.1617V22.0011V21.8405L30.4823 17.2975L30.5846 17.3558L35.9669 20.4138C37.5036 21.2872 37.5036 22.7161 35.9669 23.5906L30.5846 26.6486L30.4812 26.7058Z" fill="url(#paint1_linear_7_11983)"/>
    <g filter="url(#filter1_i_7_11983)">
      <path d="M30.5851 26.6475L25.9387 22.0011L12.2305 35.7104C12.7365 36.2472 13.5736 36.3132 14.5163 35.7786L30.5851 26.6475Z" fill="url(#paint2_linear_7_11983)"/>
    </g>
    <path d="M30.5851 17.3547L14.5163 8.22472C13.5736 7.68902 12.7365 7.75612 12.2305 8.29292L25.9398 22.0022L30.5851 17.3547Z" fill="url(#paint3_linear_7_11983)"/>
  </g>
  <defs>
    <filter id="filter0_ii_7_11983" x="11.7207" y="7.85504" width="25.3987" height="28.2928" filterUnits="userSpaceOnUse" color-interpolation-filters="sRGB">
      <feFlood flood-opacity="0" result="BackgroundImageFix"/>
      <feBlend mode="normal" in="SourceGraphic" in2="BackgroundImageFix" result="shape"/>
      <feColorMatrix in="SourceAlpha" type="matrix" values="0 0 0 0 0 0 0 0 0 0 0 0 0 0 0 0 0 0 127 0" result="hardAlpha"/>
      <feOffset dy="-0.15"/>
      <feComposite in2="hardAlpha" operator="arithmetic" k2="-1" k3="1"/>
      <feColorMatrix type="matrix" values="0 0 0 0 0 0 0 0 0 0 0 0 0 0 0 0 0 0 0.12 0"/>
      <feBlend mode="normal" in2="shape" result="effect1_innerShadow_7_11983"/>
      <feColorMatrix in="SourceAlpha" type="matrix" values="0 0 0 0 0 0 0 0 0 0 0 0 0 0 0 0 0 0 127 0" result="hardAlpha"/>
      <feOffset dy="0.15"/>
      <feComposite in2="hardAlpha" operator="arithmetic" k2="-1" k3="1"/>
      <feColorMatrix type="matrix" values="0 0 0 0 1 0 0 0 0 1 0 0 0 0 1 0 0 0 0.25 0"/>
      <feBlend mode="normal" in2="effect1_innerShadow_7_11983" result="effect2_innerShadow_7_11983"/>
    </filter>
    <filter id="filter1_i_7_11983" x="12.2305" y="22.0011" width="18.3546" height="14.1468" filterUnits="userSpaceOnUse" color-interpolation-filters="sRGB">
      <feFlood flood-opacity="0" result="BackgroundImageFix"/>
      <feBlend mode="normal" in="SourceGraphic" in2="BackgroundImageFix" result="shape"/>
      <feColorMatrix in="SourceAlpha" type="matrix" values="0 0 0 0 0 0 0 0 0 0 0 0 0 0 0 0 0 0 127 0" result="hardAlpha"/>
      <feOffset dy="-0.15"/>
      <feComposite in2="hardAlpha" operator="arithmetic" k2="-1" k3="1"/>
      <feColorMatrix type="matrix" values="0 0 0 0 0 0 0 0 0 0 0 0 0 0 0 0 0 0 0.08 0"/>
      <feBlend mode="normal" in2="shape" result="effect1_innerShadow_7_11983"/>
    </filter>
    <linearGradient id="paint0_linear_7_11983" x1="24.7313" y1="9.57992" x2="6.27109" y2="28.0401" gradientUnits="userSpaceOnUse">
      <stop stop-color="#00A0FF"/>
      <stop offset="0.0066" stop-color="#00A1FF"/>
      <stop offset="0.2601" stop-color="#00BEFF"/>
      <stop offset="0.5122" stop-color="#00D2FF"/>
      <stop offset="0.7604" stop-color="#00DFFF"/>
      <stop offset="1" stop-color="#00E3FF"/>
    </linearGradient>
    <linearGradient id="paint1_linear_7_11983" x1="37.9672" y1="22.0011" x2="11.3517" y2="22.0011" gradientUnits="userSpaceOnUse">
      <stop stop-color="#FFE000"/>
      <stop offset="0.4087" stop-color="#FFBD00"/>
      <stop offset="0.7754" stop-color="#FFA500"/>
      <stop offset="1" stop-color="#FF9C00"/>
    </linearGradient>
    <linearGradient id="paint2_linear_7_11983" x1="28.0618" y1="24.5244" x2="3.02744" y2="49.5587" gradientUnits="userSpaceOnUse">
      <stop stop-color="#FF3A44"/>
      <stop offset="1" stop-color="#C31162"/>
    </linearGradient>
    <linearGradient id="paint3_linear_7_11983" x1="8.77801" y1="0.194504" x2="19.9565" y2="11.373" gradientUnits="userSpaceOnUse">
      <stop stop-color="#32A071"/>
      <stop offset="0.0685" stop-color="#2DA771"/>
      <stop offset="0.4762" stop-color="#15CF74"/>
      <stop offset="0.8009" stop-color="#06E775"/>
      <stop offset="1" stop-color="#00F076"/>
    </linearGradient>
  </defs>
</svg>